<svg xmlns="http://www.w3.org/2000/svg" viewBox="105 540 1270 305" fill="none">
<line x1="218.10" y1="625.80" x2="301.87" y2="625.80" stroke="#ffffff" stroke-width="26.25" stroke-linecap="round"/>
<line x1="162.37" y1="692.75" x2="359.03" y2="692.75" stroke="#ffffff" stroke-width="26.25" stroke-linecap="round"/>
<line x1="125.12" y1="759.71" x2="400.05" y2="759.71" stroke="#ffffff" stroke-width="26.25" stroke-linecap="round"/>
<line x1="467.09" y1="560" x2="467.09" y2="825" stroke="#ffffff" stroke-width="26.25" stroke-linecap="round"/>
<g fill="#ffffff" fill-opacity="1"><g transform="translate(521.003244, 732.079549)"><g><path d="M 66.703125 -19.953125 C 71.453125 -19.953125 75.441406 -20.519531 78.671875 -21.65625 C 81.898438 -22.800781 84.476562 -24.320312 86.40625 -26.21875 C 88.34375 -28.125 89.738281 -30.34375 90.59375 -32.875 C 91.445312 -35.40625 91.875 -38.097656 91.875 -40.953125 C 91.875 -43.921875 91.394531 -46.59375 90.4375 -48.96875 C 89.488281 -51.351562 88 -53.382812 85.96875 -55.0625 C 83.945312 -56.738281 81.335938 -58.019531 78.140625 -58.90625 C 74.941406 -59.789062 71.09375 -60.234375 66.59375 -60.234375 L 40.859375 -60.234375 L 40.859375 -19.953125 Z M 40.859375 -117.625 L 40.859375 -77.90625 L 61.1875 -77.90625 C 69.925781 -77.90625 76.523438 -79.488281 80.984375 -82.65625 C 85.453125 -85.820312 87.6875 -90.859375 87.6875 -97.765625 C 87.6875 -104.921875 85.660156 -110.019531 81.609375 -113.0625 C 77.554688 -116.101562 71.222656 -117.625 62.609375 -117.625 Z M 62.609375 -137.375 C 71.597656 -137.375 79.289062 -136.519531 85.6875 -134.8125 C 92.09375 -133.101562 97.335938 -130.664062 101.421875 -127.5 C 105.503906 -124.332031 108.492188 -120.5 110.390625 -116 C 112.296875 -111.507812 113.25 -106.441406 113.25 -100.796875 C 113.25 -97.566406 112.773438 -94.476562 111.828125 -91.53125 C 110.878906 -88.59375 109.40625 -85.835938 107.40625 -83.265625 C 105.40625 -80.703125 102.867188 -78.375 99.796875 -76.28125 C 96.734375 -74.195312 93.078125 -72.425781 88.828125 -70.96875 C 107.703125 -66.726562 117.140625 -56.53125 117.140625 -40.375 C 117.140625 -34.550781 116.03125 -29.164062 113.8125 -24.21875 C 111.601562 -19.28125 108.375 -15.019531 104.125 -11.4375 C 99.882812 -7.863281 94.660156 -5.0625 88.453125 -3.03125 C 82.242188 -1.007812 75.148438 0 67.171875 0 L 15.296875 0 L 15.296875 -137.375 Z M 62.609375 -137.375 "/></g></g></g>
<g fill="#ffffff" fill-opacity="1"><g transform="translate(646.123298, 732.079549)"><g><path d="M 87.875 -51.875 L 71.15625 -97.578125 C 70.332031 -99.597656 69.476562 -102 68.59375 -104.78125 C 67.707031 -107.570312 66.820312 -110.582031 65.9375 -113.8125 C 65.113281 -110.582031 64.257812 -107.554688 63.375 -104.734375 C 62.488281 -101.921875 61.632812 -99.472656 60.8125 -97.390625 L 44.171875 -51.875 Z M 133.015625 0 L 113.25 0 C 111.03125 0 109.222656 -0.550781 107.828125 -1.65625 C 106.441406 -2.769531 105.398438 -4.148438 104.703125 -5.796875 L 94.4375 -33.828125 L 37.53125 -33.828125 L 27.265625 -5.796875 C 26.753906 -4.335938 25.769531 -3.003906 24.3125 -1.796875 C 22.863281 -0.597656 21.0625 0 18.90625 0 L -1.046875 0 L 53.015625 -137.375 L 79.046875 -137.375 Z M 133.015625 0 "/></g></g></g>
<g fill="#ffffff" fill-opacity="1"><g transform="translate(778.083619, 732.079549)"><g><path d="M 88.453125 -112.390625 C 87.691406 -111.066406 86.882812 -110.101562 86.03125 -109.5 C 85.175781 -108.894531 84.113281 -108.59375 82.84375 -108.59375 C 81.519531 -108.59375 80.082031 -109.082031 78.53125 -110.0625 C 76.976562 -111.050781 75.125 -112.144531 72.96875 -113.34375 C 70.8125 -114.550781 68.289062 -115.644531 65.40625 -116.625 C 62.53125 -117.601562 59.128906 -118.09375 55.203125 -118.09375 C 51.648438 -118.09375 48.546875 -117.664062 45.890625 -116.8125 C 43.234375 -115.957031 41 -114.769531 39.1875 -113.25 C 37.382812 -111.726562 36.039062 -109.90625 35.15625 -107.78125 C 34.269531 -105.664062 33.828125 -103.335938 33.828125 -100.796875 C 33.828125 -97.566406 34.726562 -94.875 36.53125 -92.71875 C 38.332031 -90.570312 40.722656 -88.738281 43.703125 -87.21875 C 46.679688 -85.695312 50.066406 -84.332031 53.859375 -83.125 C 57.660156 -81.925781 61.554688 -80.644531 65.546875 -79.28125 C 69.546875 -77.914062 73.441406 -76.332031 77.234375 -74.53125 C 81.035156 -72.726562 84.425781 -70.445312 87.40625 -67.6875 C 90.382812 -64.9375 92.773438 -61.566406 94.578125 -57.578125 C 96.378906 -53.585938 97.28125 -48.738281 97.28125 -43.03125 C 97.28125 -36.832031 96.21875 -31.023438 94.09375 -25.609375 C 91.976562 -20.191406 88.878906 -15.472656 84.796875 -11.453125 C 80.710938 -7.429688 75.722656 -4.265625 69.828125 -1.953125 C 63.941406 0.355469 57.195312 1.515625 49.59375 1.515625 C 45.21875 1.515625 40.910156 1.085938 36.671875 0.234375 C 32.429688 -0.617188 28.363281 -1.835938 24.46875 -3.421875 C 20.570312 -5.003906 16.910156 -6.90625 13.484375 -9.125 C 10.066406 -11.34375 7.03125 -13.8125 4.375 -16.53125 L 11.875 -28.78125 C 12.507812 -29.675781 13.332031 -30.421875 14.34375 -31.015625 C 15.351562 -31.617188 16.429688 -31.921875 17.578125 -31.921875 C 19.160156 -31.921875 20.867188 -31.269531 22.703125 -29.96875 C 24.546875 -28.675781 26.734375 -27.238281 29.265625 -25.65625 C 31.796875 -24.070312 34.753906 -22.628906 38.140625 -21.328125 C 41.535156 -20.023438 45.609375 -19.375 50.359375 -19.375 C 57.640625 -19.375 63.273438 -21.097656 67.265625 -24.546875 C 71.253906 -28.003906 73.25 -32.960938 73.25 -39.421875 C 73.25 -43.035156 72.34375 -45.984375 70.53125 -48.265625 C 68.726562 -50.546875 66.335938 -52.460938 63.359375 -54.015625 C 60.390625 -55.566406 57.003906 -56.878906 53.203125 -57.953125 C 49.398438 -59.023438 45.535156 -60.195312 41.609375 -61.46875 C 37.679688 -62.738281 33.816406 -64.257812 30.015625 -66.03125 C 26.222656 -67.800781 22.835938 -70.109375 19.859375 -72.953125 C 16.878906 -75.804688 14.484375 -79.367188 12.671875 -83.640625 C 10.867188 -87.921875 9.96875 -93.195312 9.96875 -99.46875 C 9.96875 -104.476562 10.96875 -109.359375 12.96875 -114.109375 C 14.96875 -118.859375 17.863281 -123.066406 21.65625 -126.734375 C 25.457031 -130.410156 30.144531 -133.359375 35.71875 -135.578125 C 41.289062 -137.796875 47.691406 -138.90625 54.921875 -138.90625 C 63.023438 -138.90625 70.492188 -137.632812 77.328125 -135.09375 C 84.171875 -132.5625 90 -129.015625 94.8125 -124.453125 Z M 88.453125 -112.390625 "/></g></g></g>
<g fill="#ffffff" fill-opacity="1"><g transform="translate(882.302825, 732.079549)"><g><path d="M 111.25 -116.390625 L 69.828125 -116.390625 L 69.828125 0 L 44.28125 0 L 44.28125 -116.390625 L 2.84375 -116.390625 L 2.84375 -137.375 L 111.25 -137.375 Z M 111.25 -116.390625 "/></g></g></g>
<g fill="#ffffff" fill-opacity="1"><g transform="translate(996.307416, 732.079549)"><g><path d="M 40.953125 -117.046875 L 40.953125 -78.953125 L 89.015625 -78.953125 L 89.015625 -59.28125 L 40.953125 -59.28125 L 40.953125 -20.421875 L 101.9375 -20.421875 L 101.9375 0 L 15.296875 0 L 15.296875 -137.375 L 101.9375 -137.375 L 101.9375 -117.046875 Z M 40.953125 -117.046875 "/></g></g></g>
<g fill="#ffffff" fill-opacity="1"><g transform="translate(1105.561816, 732.079549)"><g><path d="M 109.640625 -32.390625 C 111.035156 -32.390625 112.269531 -31.851562 113.34375 -30.78125 L 123.421875 -19.859375 C 117.835938 -12.953125 110.976562 -7.660156 102.84375 -3.984375 C 94.707031 -0.316406 84.9375 1.515625 73.53125 1.515625 C 63.332031 1.515625 54.164062 -0.222656 46.03125 -3.703125 C 37.894531 -7.191406 30.941406 -12.035156 25.171875 -18.234375 C 19.410156 -24.441406 14.992188 -31.851562 11.921875 -40.46875 C 8.847656 -49.082031 7.3125 -58.488281 7.3125 -68.6875 C 7.3125 -79.007812 8.957031 -88.460938 12.25 -97.046875 C 15.550781 -105.628906 20.191406 -113.023438 26.171875 -119.234375 C 32.160156 -125.441406 39.300781 -130.269531 47.59375 -133.71875 C 55.894531 -137.175781 65.082031 -138.90625 75.15625 -138.90625 C 85.15625 -138.90625 94.035156 -137.253906 101.796875 -133.953125 C 109.554688 -130.660156 116.160156 -126.359375 121.609375 -121.046875 L 113.0625 -109.171875 C 112.550781 -108.410156 111.898438 -107.742188 111.109375 -107.171875 C 110.316406 -106.597656 109.222656 -106.3125 107.828125 -106.3125 C 106.878906 -106.3125 105.898438 -106.578125 104.890625 -107.109375 C 103.878906 -107.648438 102.769531 -108.316406 101.5625 -109.109375 C 100.363281 -109.898438 98.972656 -110.769531 97.390625 -111.71875 C 95.804688 -112.675781 93.96875 -113.550781 91.875 -114.34375 C 89.78125 -115.132812 87.351562 -115.796875 84.59375 -116.328125 C 81.84375 -116.867188 78.664062 -117.140625 75.0625 -117.140625 C 68.914062 -117.140625 63.289062 -116.046875 58.1875 -113.859375 C 53.09375 -111.679688 48.707031 -108.515625 45.03125 -104.359375 C 41.351562 -100.210938 38.5 -95.144531 36.46875 -89.15625 C 34.445312 -83.175781 33.4375 -76.351562 33.4375 -68.6875 C 33.4375 -60.957031 34.53125 -54.082031 36.71875 -48.0625 C 38.90625 -42.050781 41.863281 -36.988281 45.59375 -32.875 C 49.332031 -28.757812 53.734375 -25.609375 58.796875 -23.421875 C 63.867188 -21.234375 69.320312 -20.140625 75.15625 -20.140625 C 78.632812 -20.140625 81.78125 -20.328125 84.59375 -20.703125 C 87.414062 -21.085938 90.015625 -21.691406 92.390625 -22.515625 C 94.765625 -23.335938 97.015625 -24.394531 99.140625 -25.6875 C 101.265625 -26.988281 103.367188 -28.59375 105.453125 -30.5 C 106.085938 -31.070312 106.753906 -31.53125 107.453125 -31.875 C 108.148438 -32.21875 108.878906 -32.390625 109.640625 -32.390625 Z M 109.640625 -32.390625 "/></g></g></g>
<g fill="#ffffff" fill-opacity="1"><g transform="translate(1231.251899, 732.079549)"><g><path d="M 131.109375 -137.375 L 131.109375 0 L 105.453125 0 L 105.453125 -60.046875 L 40.953125 -60.046875 L 40.953125 0 L 15.296875 0 L 15.296875 -137.375 L 40.953125 -137.375 L 40.953125 -78.28125 L 105.453125 -78.28125 L 105.453125 -137.375 Z M 131.109375 -137.375 "/></g></g></g>
<path fill="#f97316" d="M 649.816406 770.3125 C 671.945312 770.050781 878.734375 767.289062 981.339844 767.519531 C 1087.390625 767.753906 1244.667969 770.304688 1244.667969 770.3125 C 1244.667969 770.316406 1087.390625 772.867188 981.339844 773.105469 C 878.730469 773.332031 671.945312 770.574219 649.816406 770.3125 Z M 649.816406 770.3125 " fill-opacity="1" fill-rule="evenodd"/>
<path fill="#f97316" d="M 654.90625 775.402344 C 677.035156 775.140625 883.824219 772.378906 986.429688 772.609375 C 1092.480469 772.84375 1249.757812 775.394531 1249.757812 775.402344 C 1249.757812 775.410156 1092.480469 777.957031 986.429688 778.195312 C 883.824219 778.421875 677.035156 775.664062 654.90625 775.402344 Z M 654.90625 775.402344 " fill-opacity="1" fill-rule="evenodd"/>
</svg>